#!OML:ASF F:\VICON\USERDATA\INSTALL\rory3\rory3.ASF
:FULLY-SPECIFIED
:DEGREES
637
root 4.42492 15.7937 1.69773 21.8121 -5.11188 -4.46573
lowerback 9.85185 -0.935347 2.63621
upperback 8.89389 -1.08263 -0.569926
thorax 3.70584 -0.400035 -2.00045
lowerneck -17.756 -0.594592 -2.2243
upperneck 37.3491 0.676626 -2.07121
head 16.3998 -0.366075 -0.395395
rclavicle 1.98785e-015 -5.56597e-015
rhumerus -78.6685 63.6547 -87.5682
rradius 60.6948
rwrist -17.8253
rhand -8.13571 -41.7973
rfingers 7.12502
rthumb 17.7783 -71.0046
lclavicle 1.98785e-015 -5.56597e-015
lhumerus -90.5801 -70.959 99.1673
lradius 60.185
lwrist 59.5358
lhand -28.1034 -25.5797
lfingers 7.12502
lthumb -1.4858 4.39489
rfemur -74.7332 -0.52429 20.4815
rtibia 36.3279
rfoot 37.461 -0.590096
rtoes 5.00911
lfemur -58.0115 2.70199 -26.8803
ltibia 61.5194
lfoot -24.1745 4.17798
ltoes 12.7343
638
root 4.4162 15.7726 1.68393 21.7805 -5.28936 -4.16521
lowerback 10.0432 -0.8569 2.22306
upperback 8.93508 -0.999621 -0.664644
thorax 3.65183 -0.377119 -1.87066
lowerneck -17.5835 -0.658289 -2.38158
upperneck 37.1148 0.542144 -1.85369
head 16.2344 -0.407815 -0.293226
rclavicle 5.1684e-015 -1.35174e-014
rhumerus -78.4924 63.6105 -87.2509
rradius 60.6435
rwrist -17.963
rhand -7.92203 -41.9994
rfingers 7.12502
rthumb 17.9839 -71.188
lclavicle 5.1684e-015 -1.35174e-014
lhumerus -90.593 -71.2892 98.9288
lradius 60.2557
lwrist 59.7222
lhand -27.3984 -25.4142
lfingers 7.12502
lthumb -0.804913 4.56398
rfemur -74.8831 -0.367021 19.9937
rtibia 36.3939
rfoot 37.4776 -0.875971
rtoes 5.15129
lfemur -58.1068 2.63809 -27.183
ltibia 61.5908
lfoot -24.0975 4.40406
ltoes 12.4535
639
root 4.41632 15.7721 1.6873 21.9517 -5.19579 -4.1531
lowerback 9.71247 -0.883939 2.30658
upperback 9.04122 -1.03799 -0.692414
thorax 3.94314 -0.386065 -1.94959
lowerneck -18.1072 -0.624139 -2.12833
upperneck 37.4145 0.633254 -2.11738
head 16.5207 -0.378349 -0.44336
rclavicle -7.95139e-016 2.38542e-015
rhumerus -78.0514 63.6228 -86.7878
rradius 60.4982
rwrist -17.8036
rhand -7.514 -41.9829
rfingers 7.12502
rthumb 18.3764 -71.1349
lclavicle -7.95139e-016 2.38542e-015
lhumerus -89.6291 -71.3385 97.8033
lradius 60.1662
lwrist 59.7742
lhand -28.0369 -26.4892
lfingers 7.12502
lthumb -1.42151 3.48576
rfemur -75.0781 -0.584705 20.1758
rtibia 36.452
rfoot 37.3614 -0.682752
rtoes 4.4717
lfemur -58.2858 2.46795 -27.1634
ltibia 61.6192
lfoot -24.0857 4.56037
ltoes 12.1122
640
root 4.41153 15.768 1.68541 21.9903 -5.19855 -4.01512
lowerback 9.71548 -0.877724 2.13302
upperback 9.03374 -1.03934 -0.709951
thorax 3.93476 -0.395303 -1.87029
lowerneck -18.1432 -0.584274 -2.02498
upperneck 37.4114 0.727861 -2.29647
head 16.5303 -0.350359 -0.522839
rclavicle 1.27222e-014 -6.36111e-015
rhumerus -78.0133 63.6748 -86.6088
rradius 60.3885
rwrist -17.8895
rhand -7.92209 -41.8346
rfingers 7.12502
rthumb 17.9838 -71.0232
lclavicle 1.27222e-014 -6.36111e-015
lhumerus -88.8633 -71.2579 96.8023
lradius 60.1282
lwrist 59.5431
lhand -28.7442 -27.6674
lfingers 7.12502
lthumb -2.10468 2.30201
rfemur -75.1964 -0.614517 20.0267
rtibia 36.5334
rfoot 37.2803 -0.680955
rtoes 3.9239
lfemur -58.3873 2.36621 -27.2623
ltibia 61.6457
lfoot -24.0633 4.58506
ltoes 12.1129
641
root 4.40719 15.7643 1.68163 21.9787 -5.19439 -3.95209
lowerback 9.85117 -0.853141 2.05659
upperback 8.97084 -1.00798 -0.709192
thorax 3.79544 -0.385833 -1.82605
lowerneck -18.0573 -0.572226 -1.96256
upperneck 37.4754 0.767615 -2.41092
head 16.544 -0.341426 -0.577364
rclavicle 9.54166e-015 -4.77083e-015
rhumerus -78.3153 63.7188 -86.6668
rradius 60.3626
rwrist -18.2789
rhand -8.6174 -41.5981
rfingers 7.12502
rthumb 17.3147 -70.8468
lclavicle 9.54166e-015 -4.77083e-015
lhumerus -88.3573 -71.246 96.0845
lradius 60.0198
lwrist 59.2572
lhand -28.1111 -27.6513
lfingers 7.12502
lthumb -1.49317 2.32326
rfemur -75.2154 -0.580029 19.9012
rtibia 36.5665
rfoot 37.2516 -0.838291
rtoes 4.00332
lfemur -58.4231 2.32286 -27.2951
ltibia 61.6632
lfoot -24.0372 4.55289
ltoes 12.643
642
root 4.40353 15.7632 1.68026 21.9716 -5.21778 -3.95013
lowerback 9.97162 -0.845379 2.0114
upperback 8.95618 -0.998153 -0.705
thorax 3.71487 -0.384551 -1.79519
lowerneck -18.1981 -0.541873 -1.89338
upperneck 37.6377 0.832494 -2.5002
head 16.6659 -0.320859 -0.62052
rclavicle -1.19271e-015 0
rhumerus -78.1015 63.7077 -86.3142
rradius 60.2884
rwrist -18.2888
rhand -8.74969 -41.6823
rfingers 7.12502
rthumb 17.1874 -70.9422
lclavicle -1.19271e-015 0
lhumerus -88.3198 -71.4087 95.7747
lradius 60.0762
lwrist 59.374
lhand -27.7295 -26.9488
lfingers 7.12502
lthumb -1.12468 3.02796
rfemur -75.2051 -0.544801 19.8981
rtibia 36.5765
rfoot 37.2233 -0.848886
rtoes 3.77476
lfemur -58.4362 2.35193 -27.3046
ltibia 61.687
lfoot -24.099 4.52524
ltoes 12.9054
643
root 4.40005 15.7641 1.68046 21.9695 -5.2414 -3.99149
lowerback 10.0333 -0.846087 1.99713
upperback 8.96386 -0.999126 -0.698001
thorax 3.68959 -0.386342 -1.77909
lowerneck -18.2733 -0.512418 -1.86831
upperneck 37.7089 0.871503 -2.50077
head 16.7226 -0.303282 -0.619606
rclavicle 2.78299e-015 7.95139e-016
rhumerus -77.58 63.6226 -85.7603
rradius 60.0988
rwrist -18.0598
rhand -8.48617 -41.9259
rfingers 7.12502
rthumb 17.441 -71.1635
lclavicle 2.78299e-015 7.95139e-016
lhumerus -88.5522 -71.5012 95.7397
lradius 60.1648
lwrist 59.5499
lhand -28.3537 -27.0303
lfingers 7.12502
lthumb -1.72757 2.94249
rfemur -75.1655 -0.550726 20.0321
rtibia 36.5463
rfoot 37.2026 -0.684833
rtoes 3.35474
lfemur -58.4401 2.3936 -27.2684
ltibia 61.7061
lfoot -24.1857 4.55847
ltoes 12.6151
644
root 4.39942 15.766 1.67859 22.005 -5.22816 -4.05805
lowerback 10.0451 -0.861076 2.09789
upperback 8.9549 -1.01176 -0.716589
thorax 3.67177 -0.387224 -1.85384
lowerneck -18.2169 -0.474001 -1.76422
upperneck 37.6157 0.907313 -2.55618
head 16.66 -0.280383 -0.653963
rclavicle 1.27222e-014 -5.56597e-015
rhumerus -77.142 63.5455 -85.3054
rradius 59.9191
rwrist -18.0156
rhand -7.93372 -41.9791
rfingers 7.12502
rthumb 17.9726 -71.1687
lclavicle 1.27222e-014 -5.56597e-015
lhumerus -88.7627 -71.7012 95.6269
lradius 60.2449
lwrist 59.8372
lhand -28.5882 -27.5719
lfingers 7.12502
lthumb -1.95398 2.39894
rfemur -75.1504 -0.630876 20.2579
rtibia 36.479
rfoot 37.2261 -0.563259
rtoes 3.49448
lfemur -58.4755 2.38328 -27.1948
ltibia 61.7054
lfoot -24.173 4.66746
ltoes 12.2307
645
root 4.40069 15.7715 1.67716 22.0404 -5.18599 -4.16027
lowerback 9.97672 -0.869609 2.28431
upperback 8.98269 -1.01296 -0.72055
thorax 3.73702 -0.377122 -1.96371
lowerneck -18.1622 -0.476801 -1.83545
upperneck 37.5223 0.859901 -2.3923
head 16.5946 -0.285117 -0.575838
rclavicle -2.38542e-015 3.97569e-015
rhumerus -76.9704 63.569 -85.0046
rradius 59.902
rwrist -18.0971
rhand -7.11349 -41.9126
rfingers 7.12502
rthumb 18.7617 -71.0278
lclavicle -2.38542e-015 3.97569e-015
lhumerus -88.6143 -71.9107 95.2151
lradius 60.2212
lwrist 59.8415
lhand -27.9961 -27.3606
lfingers 7.12502
lthumb -1.38216 2.61463
rfemur -75.0941 -0.727112 20.5323
rtibia 36.377
rfoot 37.273 0.0514113
rtoes 2.54214
lfemur -58.4902 2.34815 -27.0693
ltibia 61.6759
lfoot -24.094 4.75015
ltoes 11.9601
646
root 4.4006 15.7769 1.67857 22.0714 -5.19974 -4.19319
lowerback 9.79717 -0.838612 2.36714
upperback 9.0638 -0.972512 -0.721535
thorax 3.92345 -0.349448 -2.01714
lowerneck -18.2589 -0.548171 -2.08884
upperneck 37.6558 0.722121 -2.05893
head 16.6846 -0.332064 -0.411861
rclavicle -2.38542e-015 -3.97569e-015
rhumerus -76.8054 63.5684 -84.6739
rradius 59.8899
rwrist -18.0386
rhand -6.94782 -41.9362
rfingers 7.12502
rthumb 18.921 -71.0359
lclavicle -2.38542e-015 -3.97569e-015
lhumerus -89.2579 -72.2294 95.6658
lradius 60.2595
lwrist 59.8447
lhand -27.7443 -26.6393
lfingers 7.12502
lthumb -1.13892 3.33738
rfemur -75.027 -0.768135 20.6739
rtibia 36.2618
rfoot 37.1871 -0.521308
rtoes 3.28408
lfemur -58.4882 2.33049 -27.0234
ltibia 61.6398
lfoot -24.0683 4.80323
ltoes 11.8607
647
root 4.40049 15.7803 1.67757 22.0419 -5.25422 -4.16346
lowerback 9.74785 -0.801679 2.37935
upperback 9.1329 -0.924956 -0.747963
thorax 4.02661 -0.322288 -2.05589
lowerneck -18.3981 -0.579605 -1.96328
upperneck 37.8379 0.728949 -2.28296
head 16.8185 -0.345346 -0.535791
rclavicle -1.03368e-014 -1.43125e-014
rhumerus -76.3329 63.3836 -84.109
rradius 59.7181
rwrist -17.813
rhand -7.44347 -42.0963
rfingers 7.12502
rthumb 18.4443 -71.2419
lclavicle -1.03368e-014 -1.43125e-014
lhumerus -89.8297 -72.5481 96.0048
lradius 60.3753
lwrist 60.1057
lhand -27.826 -25.9837
lfingers 7.12502
lthumb -1.21788 3.99252
rfemur -74.9303 -0.771427 20.6919
rtibia 36.1486
rfoot 37.1358 -0.634339
rtoes 3.32389
lfemur -58.4551 2.3368 -27.054
ltibia 61.6253
lfoot -24.091 4.83607
ltoes 11.6358
